Coordinates
version=1
nRows=38
nColumns=38
inDegrees=no

Units are S.I. units (second, meters, Newtons, ...)
If the header above contains a line with 'inDegrees', this indicates whether rotational values are in degrees (yes) or radians (no).

endheader
time	pelvis_tilt	pelvis_list	pelvis_rotation	pelvis_tx	pelvis_ty	pelvis_tz	hip_flexion_r	hip_adduction_r	hip_rotation_r	knee_angle_r	ankle_angle_r	subtalar_angle_r	mtp_angle_r	hip_flexion_l	hip_adduction_l	hip_rotation_l	knee_angle_l	ankle_angle_l	subtalar_angle_l	mtp_angle_l	lumbar_extension	lumbar_bending	lumbar_rotation	arm_flex_r	arm_add_r	arm_rot_r	elbow_flex_r	pro_sup_r	wrist_flex_r	wrist_dev_r	arm_flex_l	arm_add_l	arm_rot_l	elbow_flex_l	pro_sup_l	wrist_flex_l	wrist_dev_l
1.73	-3.10471	1.42267	-1.67677	0.747108	1.01183	0.957418	0.37019	-0.23085	-0.114439	1.18673	-0.070538	0	0	-0.121097	0.0792813	-0.262804	0.166221	0.083188	0	0	-0.240487	0.00507109	0.105367	0.0547924	-0.363483	0.897646	0.386831	0.782606	0	0	0.0250176	-0.155401	0.153863	0.378849	1.5708	0	0
1.74	3.12863	1.42197	-1.62418	0.746404	1.01898	0.958121	0.37579	-0.220218	-0.125683	1.15032	-0.0563216	0	0	-0.13181	0.0724258	-0.259422	0.164697	0.0875649	0	0	-0.244866	0.0142693	0.101653	0.0601638	-0.367182	0.899015	0.389944	0.783129	0	0	0.0270129	-0.156023	0.158354	0.382221	1.5708	0	0
1.75	3.0813	1.42102	-1.5742	0.745785	1.0261	0.958758	0.379313	-0.209863	-0.13828	1.10987	-0.04265	0	0	-0.143294	0.065891	-0.256329	0.161267	0.0898068	0	0	-0.249114	0.0230764	0.0979679	0.0660954	-0.370211	0.902027	0.391627	0.784021	0	0	0.0289208	-0.157099	0.164113	0.386287	1.5708	0	0
1.76	3.03402	1.41954	-1.52488	0.745276	1.0332	0.959346	0.380367	-0.199139	-0.152122	1.06511	-0.0300707	0	0	-0.154943	0.0592473	-0.255165	0.157694	0.093194	0	0	-0.253564	0.0318806	0.0951902	0.0722096	-0.372983	0.90612	0.392417	0.784713	0	0	0.0309685	-0.158198	0.170479	0.390132	1.5708	0	0
1.77	2.98911	1.41741	-1.47835	0.744853	1.0403	0.95987	0.378736	-0.188635	-0.16835	1.01622	-0.0183687	0	0	-0.166947	0.0526864	-0.254197	0.154378	0.0982653	0	0	-0.258368	0.0403115	0.0930373	0.078451	-0.375682	0.910833	0.393285	0.783886	0	0	0.032961	-0.159259	0.177273	0.393827	1.5708	0	0
1.78	2.9477	1.41465	-1.43413	0.744375	1.04753	0.960344	0.373198	-0.179134	-0.188751	0.962377	-0.00869292	0	0	-0.179657	0.0461118	-0.251686	0.150801	0.102416	0	0	-0.26349	0.0486434	0.0895992	0.0847563	-0.378185	0.917899	0.394299	0.781159	0	0	0.0342123	-0.160332	0.184239	0.398309	1.5708	0	0
1.79	2.91494	1.41294	-1.39876	0.744024	1.05486	0.960562	0.367286	-0.171028	-0.210981	0.905984	-0.000916287	0	0	-0.191615	0.0408504	-0.249689	0.146566	0.105399	0	0	-0.267182	0.0552612	0.0861606	0.0908855	-0.379726	0.927561	0.39426	0.776853	0	0	0.0348275	-0.161456	0.189812	0.403093	1.5708	0	0
1.8	2.88892	1.41259	-1.37124	0.743912	1.06209	0.960513	0.362199	-0.163772	-0.233552	0.847814	0.00567763	0	0	-0.20228	0.0368979	-0.249129	0.1419	0.108922	0	0	-0.269761	0.0600029	0.0836535	0.0969297	-0.380216	0.935907	0.39344	0.772778	0	0	0.0357954	-0.162216	0.192589	0.406486	1.5708	0	0
1.81	2.86503	1.41181	-1.34585	0.743949	1.06938	0.960394	0.354686	-0.156222	-0.257797	0.786258	0.0119016	0	0	-0.214063	0.033094	-0.248842	0.136159	0.112732	0	0	-0.272717	0.0642396	0.0812789	0.102771	-0.380087	0.943741	0.392383	0.767708	0	0	0.0370298	-0.162626	0.193245	0.408668	1.5708	0	0
1.82	2.84393	1.41107	-1.32348	0.744198	1.07679	0.960145	0.345232	-0.147337	-0.282629	0.720937	0.0175016	0	0	-0.226314	0.0295489	-0.248972	0.129974	0.117063	0	0	-0.275344	0.0676149	0.0792487	0.1081	-0.379456	0.952566	0.391544	0.759711	0	0	0.0383064	-0.163068	0.192838	0.410601	1.5708	0	0
1.83	2.82687	1.41288	-1.30664	0.744739	1.08422	0.959483	0.339106	-0.138116	-0.304221	0.6568	0.0209579	0	0	-0.235897	0.027373	-0.250727	0.124366	0.122516	0	0	-0.275271	0.0690184	0.0790178	0.111992	-0.377843	0.95797	0.38997	0.755972	0	0	0.0399373	-0.163526	0.192347	0.411215	1.5708	0	0
1.84	2.80626	1.41405	-1.28595	0.745415	1.09163	0.958769	0.331338	-0.126784	-0.32455	0.591006	0.0225585	0	0	-0.246152	0.0241481	-0.252127	0.118303	0.127404	0	0	-0.27581	0.071006	0.0789734	0.115872	-0.375955	0.962938	0.3881	0.752286	0	0	0.0419957	-0.164017	0.191426	0.411465	1.5708	0	0
1.85	2.78585	1.416	-1.26607	0.746307	1.09899	0.957859	0.324096	-0.113701	-0.339945	0.524894	0.0248105	0	0	-0.255802	0.0212304	-0.253806	0.111802	0.130871	0	0	-0.275608	0.072333	0.0796677	0.1196	-0.373872	0.9671	0.386279	0.748414	0	0	0.0442382	-0.164775	0.190573	0.411356	1.5708	0	0
1.86	2.76223	1.41837	-1.24485	0.747534	1.10641	0.956843	0.316319	-0.0973208	-0.347857	0.456481	0.0255047	0	0	-0.265485	0.0184731	-0.256814	0.1046	0.133341	0	0	-0.274771	0.0734378	0.0823925	0.123168	-0.371835	0.972918	0.383945	0.742195	0	0	0.0470613	-0.165285	0.189296	0.409171	1.5708	0	0
1.87	2.74166	1.42279	-1.22783	0.748957	1.11382	0.955548	0.311042	-0.081062	-0.348596	0.390685	0.0272182	0	0	-0.27332	0.0174444	-0.260191	0.0977421	0.138682	0	0	-0.271973	0.0730052	0.0861343	0.126288	-0.369742	0.979358	0.381353	0.736198	0	0	0.0499802	-0.166136	0.188673	0.406801	1.5708	0	0
1.88	2.72054	1.4265	-1.21	0.75046	1.12134	0.954243	0.303236	-0.0630806	-0.340122	0.324261	0.0281942	0	0	-0.282168	0.0160814	-0.263396	0.0908362	0.145771	0	0	-0.269671	0.0728541	0.0897487	0.12918	-0.367776	0.984877	0.37908	0.729816	0	0	0.0527997	-0.167383	0.18878	0.404726	1.5708	0	0
1.89	2.69877	1.4296	-1.19089	0.751974	1.12899	0.952923	0.292603	-0.0440506	-0.322008	0.257225	0.0260129	0	0	-0.291793	0.0143408	-0.265977	0.0835498	0.15082	0	0	-0.267644	0.073112	0.0927767	0.131718	-0.365997	0.989751	0.377082	0.724881	0	0	0.0554226	-0.168916	0.189461	0.402719	1.5708	0	0
1.9	2.67287	1.43293	-1.16767	0.753534	1.13681	0.951478	0.280651	-0.0249887	-0.29523	0.191531	0.0171806	0	0	-0.301415	0.0123528	-0.269471	0.0755671	0.154407	0	0	-0.264586	0.0739133	0.0958149	0.133539	-0.364708	0.995042	0.375457	0.720538	0	0	0.0574581	-0.170307	0.189533	0.400645	1.5708	0	0
1.91	2.64944	1.43599	-1.14684	0.755059	1.14489	0.950018	0.268153	-0.00844468	-0.265039	0.132002	0.00442075	0	0	-0.311006	0.0107224	-0.273299	0.0689505	0.157932	0	0	-0.261326	0.0747558	0.0986874	0.134706	-0.363681	0.999339	0.373803	0.716797	0	0	0.0583065	-0.171837	0.190053	0.400157	1.5708	0	0
1.92	2.63236	1.43822	-1.13069	0.756353	1.15312	0.948621	0.256456	0.00406495	-0.240138	0.0839736	-0.0072448	0	0	-0.320422	0.00904574	-0.275618	0.0650191	0.1623	0	0	-0.25882	0.0758339	0.0998786	0.135618	-0.363113	1.00374	0.37289	0.713519	0	0	0.0583659	-0.173595	0.191908	0.401399	1.5708	0	0
1.93	2.62114	1.4398	-1.11909	0.757437	1.16155	0.947275	0.248009	0.012699	-0.225056	0.0518464	-0.0135858	0	0	-0.329541	0.00723737	-0.277635	0.0636892	0.167967	0	0	-0.25669	0.0770525	0.0996832	0.136352	-0.362919	1.00857	0.372415	0.710475	0	0	0.0580914	-0.174947	0.193773	0.401924	1.5708	0	0
1.94	2.61307	1.44104	-1.11074	0.75848	1.17026	0.946001	0.243714	0.018863	-0.219222	0.0365001	-0.0143565	0	0	-0.33861	0.00564026	-0.279432	0.0638654	0.172329	0	0	-0.254427	0.078309	0.0994734	0.13653	-0.36287	1.01409	0.371648	0.7069	0	0	0.0572487	-0.175708	0.194752	0.401641	1.5708	0	0
1.95	2.60893	1.44153	-1.10517	0.759359	1.179	0.944875	0.243196	0.022793	-0.223345	0.03746	-0.0129511	0	0	-0.347143	0.00359337	-0.279422	0.0666807	0.177895	0	0	-0.25323	0.0798768	0.0982291	0.136605	-0.362891	1.01652	0.371056	0.705373	0	0	0.056603	-0.176016	0.194925	0.400925	1.5708	0	0
1.96	2.60862	1.4406	-1.10187	0.760075	1.18785	0.943963	0.243045	0.0252326	-0.23196	0.0489182	-0.012356	0	0	-0.35582	0.000505646	-0.278972	0.0720093	0.183067	0	0	-0.253544	0.0821598	0.0954257	0.136647	-0.363174	1.0193	0.371002	0.704006	0	0	0.0555821	-0.175913	0.193923	0.401109	1.5708	0	0
1.97	2.61081	1.43973	-1.10132	0.760764	1.19696	0.943123	0.244514	0.0257945	-0.24123	0.0697016	-0.0123309	0	0	-0.364069	-0.00233317	-0.279944	0.0784239	0.187279	0	0	-0.25359	0.0843542	0.0925746	0.136017	-0.36386	1.02217	0.371437	0.702663	0	0	0.0533765	-0.175299	0.191618	0.402629	1.5708	0	0
1.98	2.61635	1.43927	-1.10405	0.761456	1.20634	0.942291	0.246989	0.0246931	-0.249598	0.0964571	-0.0138544	0	0	-0.371632	-0.00487514	-0.2815	0.0861848	0.190998	0	0	-0.252996	0.086096	0.0893382	0.134577	-0.364679	1.02442	0.372299	0.701474	0	0	0.0500891	-0.174565	0.188449	0.40448	1.5708	0	0
1.99	2.62407	1.43883	-1.10755	0.76209	1.21584	0.941511	0.248742	0.0226937	-0.258585	0.124195	-0.0146145	0	0	-0.377961	-0.00811784	-0.282198	0.0964023	0.194484	0	0	-0.252251	0.0877653	0.0847165	0.132753	-0.365479	1.02595	0.37366	0.700186	0	0	0.0463963	-0.173871	0.184109	0.406568	1.5708	0	0
2	2.62497	1.43809	-1.1039	0.762827	1.22548	0.940836	0.248794	0.0223064	-0.267178	0.147397	-0.0145425	0	0	-0.383178	-0.0130568	-0.284324	0.108748	0.197654	0	0	-0.251146	0.0904375	0.0798626	0.130573	-0.366144	1.02672	0.374888	0.6989	0	0	0.0420655	-0.173021	0.177966	0.40876	1.5708	0	0
2.01	2.61935	1.43717	-1.09441	0.763803	1.23529	0.940295	0.245378	0.0247665	-0.269	0.159586	-0.0182181	0	0	-0.387444	-0.0193496	-0.288352	0.122801	0.200176	0	0	-0.24961	0.093828	0.075589	0.128237	-0.366317	1.0274	0.375214	0.698163	0	0	0.0372131	-0.171931	0.170073	0.410416	1.5708	0	0
2.02	2.60419	1.43623	-1.07629	0.765043	1.2453	0.939849	0.239078	0.0305852	-0.264445	0.161061	-0.033738	0	0	-0.390512	-0.027257	-0.29477	0.13845	0.202085	0	0	-0.247195	0.0982674	0.0722098	0.125578	-0.366331	1.02813	0.375416	0.698039	0	0	0.0317839	-0.170346	0.159797	0.412213	1.5708	0	0
2.03	2.58177	1.43559	-1.05106	0.766422	1.25551	0.939441	0.232287	0.0372381	-0.259757	0.159276	-0.0595231	0	0	-0.39192	-0.0364995	-0.302304	0.155949	0.203294	0	0	-0.243561	0.103461	0.0690279	0.122435	-0.366593	1.02822	0.376284	0.698061	0	0	0.0258035	-0.168901	0.149276	0.414206	1.5708	0	0
2.04	2.55637	1.43504	-1.02305	0.767886	1.26588	0.93908	0.226753	0.0428621	-0.259787	0.160871	-0.0845394	0	0	-0.391812	-0.0466533	-0.310104	0.175815	0.203261	0	0	-0.239166	0.109019	0.0660311	0.119007	-0.367072	1.02875	0.376932	0.698385	0	0	0.0192692	-0.167734	0.140023	0.416557	1.5708	0	0
2.05	2.52941	1.43436	-0.993974	0.76948	1.27636	0.938799	0.222996	0.047489	-0.263885	0.167844	-0.102183	0	0	-0.39016	-0.0576322	-0.317936	0.19853	0.20226	0	0	-0.234476	0.114869	0.0634449	0.11561	-0.367825	1.03047	0.377651	0.698252	0	0	0.0125422	-0.166601	0.130963	0.418771	1.5708	0	0
2.06	2.50046	1.43389	-0.964222	0.771263	1.28685	0.938641	0.221847	0.0512249	-0.269904	0.180647	-0.110252	0	0	-0.386037	-0.0691419	-0.326414	0.224997	0.19945	0	0	-0.229515	0.120654	0.0621871	0.112117	-0.368778	1.03272	0.378501	0.697532	0	0	0.00612534	-0.165175	0.121994	0.420218	1.5708	0	0
2.07	2.46461	1.43233	-0.928475	0.773176	1.29737	0.938691	0.221454	0.0560051	-0.27475	0.196987	-0.110818	0	0	-0.380069	-0.0828418	-0.335971	0.255445	0.194715	0	0	-0.224964	0.127863	0.0619623	0.108637	-0.370181	1.03463	0.37951	0.697018	0	0	-7.9703e-05	-0.163273	0.1131	0.421303	1.5708	0	0
2.08	2.42349	1.42872	-0.887743	0.775199	1.30794	0.939033	0.219634	0.0629381	-0.278327	0.214294	-0.106367	0	0	-0.373056	-0.0996765	-0.345534	0.289746	0.18773	0	0	-0.221544	0.137009	0.0624348	0.105185	-0.371821	1.03555	0.3808	0.69635	0	0	-0.00611986	-0.16102	0.104421	0.42282	1.5708	0	0
2.09	2.38142	1.42353	-0.846554	0.777319	1.3185	0.939659	0.216059	0.0715041	-0.280784	0.230688	-0.099441	0	0	-0.364161	-0.119051	-0.354724	0.328748	0.177287	0	0	-0.219281	0.14745	0.0638141	0.101877	-0.373736	1.03665	0.382418	0.695873	0	0	-0.011772	-0.158653	0.0966284	0.424507	1.5708	0	0
2.1	2.34195	1.41859	-0.808713	0.779535	1.32899	0.940452	0.211576	0.0799452	-0.282928	0.244834	-0.0909139	0	0	-0.351307	-0.139378	-0.36179	0.373428	0.161937	0	0	-0.21691	0.157416	0.0659615	0.0988368	-0.375464	1.03858	0.383865	0.695657	0	0	-0.0171924	-0.15659	0.0905031	0.427145	1.5708	0	0
